<?xml version="1.0"?>
<svg xmlns="http://www.w3.org/2000/svg" xmlns:xlink="http://www.w3.org/1999/xlink" xmlns:svgjs="http://svgjs.com/svgjs" version="1.1" width="512" height="512" x="0" y="0" viewBox="0 0 512 512" style="enable-background:new 0 0 512 512" xml:space="preserve" class=""><g><path xmlns="http://www.w3.org/2000/svg" d="m472 24a16 16 0 0 1 16 16v296h-464v-296a16 16 0 0 1 16-16z" fill="#3f3d56" data-original="#548aff" style="" class=""/><path xmlns="http://www.w3.org/2000/svg" d="m224 120 64 40-64 40z" fill="#91c0ff" data-original="#91c0ff" style=""/><path xmlns="http://www.w3.org/2000/svg" d="m216 408-24 80h128l-24-80z" fill="#bdd1f2" data-original="#bdd1f2" style=""/><path xmlns="http://www.w3.org/2000/svg" d="m256 456a8.00039 8.00039 0 0 1 -8-8v-40a8 8 0 0 1 16 0v40a8.00039 8.00039 0 0 1 -8 8z" fill="#a4b9e0" data-original="#a4b9e0" style=""/><path xmlns="http://www.w3.org/2000/svg" d="m56 248h160v16h-160z" fill="#4976f2" data-original="#4976f2" style=""/><path xmlns="http://www.w3.org/2000/svg" d="m240 248h136v16h-136z" fill="#4976f2" data-original="#4976f2" style=""/><path xmlns="http://www.w3.org/2000/svg" d="m56 280h16v32h-16z" fill="#91c0ff" data-original="#91c0ff" style=""/><path xmlns="http://www.w3.org/2000/svg" d="m88 280h16v32h-16z" fill="#91c0ff" data-original="#91c0ff" style=""/><path xmlns="http://www.w3.org/2000/svg" d="m144 288h24v16h-24z" fill="#4976f2" data-original="#4976f2" style=""/><path xmlns="http://www.w3.org/2000/svg" d="m184 288h48v16h-48z" fill="#4976f2" data-original="#4976f2" style=""/><g xmlns="http://www.w3.org/2000/svg" fill="#91c0ff"><path d="m416 272h-16v-16a8.00039 8.00039 0 0 1 8-8h16v16h-8z" fill="#91c0ff" data-original="#91c0ff" style=""/><path d="m464 272h-16v-8h-8v-16h16a8.00039 8.00039 0 0 1 8 8z" fill="#91c0ff" data-original="#91c0ff" style=""/><path d="m456 312h-16v-16h8v-8h16v16a8.00039 8.00039 0 0 1 -8 8z" fill="#91c0ff" data-original="#91c0ff" style=""/><path d="m424 312h-16a8.00039 8.00039 0 0 1 -8-8v-16h16v8h8z" fill="#91c0ff" data-original="#91c0ff" style=""/></g><path xmlns="http://www.w3.org/2000/svg" d="m24 336h464a0 0 0 0 1 0 0v56a16 16 0 0 1 -16 16h-432a16 16 0 0 1 -16-16v-56a0 0 0 0 1 0 0z" fill="#d1e4ff" data-original="#d1e4ff" style="" class=""/><path xmlns="http://www.w3.org/2000/svg" d="m56 56h24v16h-24z" fill="#4976f2" data-original="#4976f2" style=""/><path xmlns="http://www.w3.org/2000/svg" d="m96 56h88v16h-88z" fill="#4976f2" data-original="#4976f2" style=""/><path xmlns="http://www.w3.org/2000/svg" d="m160 480h192v16h-192z" fill="#d1e4ff" data-original="#d1e4ff" style="" class=""/></g></svg>
