<svg width="512" height="512" viewBox="0 0 512 512" fill="none" xmlns="http://www.w3.org/2000/svg">
<path d="M437 0H75C33.6484 0 0 33.6484 0 75V437C0 478.352 33.6484 512 75 512H437C478.352 512 512 478.352 512 437V75C512 33.6484 478.352 0 437 0ZM181 406H121V196H181V406ZM181 166H121V106H181V166ZM391 406H331V286C331 269.461 317.539 256 301 256C284.461 256 271 269.461 271 286V406H211V196H271V207.309C286.719 202.422 296.93 196 316 196C356.691 196.043 391 232.547 391 275.688V406Z" fill="#3F3D56"/>
</svg>
